<?xml version="1.0" encoding="utf-8"?>
<!-- Generator: Adobe Illustrator 22.0.1, SVG Export Plug-In . SVG Version: 6.00 Build 0)  -->
<svg version="1.1" xmlns="http://www.w3.org/2000/svg" xmlns:xlink="http://www.w3.org/1999/xlink" x="0px" y="0px"
	 viewBox="0 0 91.938 24" style="enable-background:new 0 0 91.938 24;" xml:space="preserve">
<style type="text/css">
	.st0{clip-path:url(#SVGID_2_);fill:#4B4B4B;}
	.st1{fill:#988888;}
	.st2{fill:#FFFFFF;}
	.st3{fill:url(#SVGID_3_);}
	.st4{opacity:0.7;fill:#546E7A;}
	.st5{fill:#546E7A;}
	.st6{fill:#999999;}
	.st7{fill:#DDDDDD;}
	.st8{fill:#EE9A9E;}
	.st9{fill:#F6BA84;}
	.st10{fill:#FBFACB;}
	.st11{fill:none;}
	.st12{opacity:0.9;}
	.st13{fill:#988989;}
	.st14{fill:url(#SVGID_4_);}
	.st15{fill:url(#SVGID_5_);}
	.st16{fill:url(#SVGID_6_);}
	.st17{fill:url(#SVGID_7_);}
	.st18{fill:url(#SVGID_8_);}
	.st19{fill:url(#SVGID_9_);}
	.st20{fill:url(#SVGID_10_);}
	.st21{fill:url(#SVGID_11_);}
	.st22{fill:url(#SVGID_12_);}
	.st23{fill:#794DFF;}
	.st24{fill:url(#SVGID_13_);}
	.st25{fill:url(#SVGID_14_);}
	.st26{fill:#666666;}
	.st27{stroke:#000000;stroke-width:0.25;stroke-miterlimit:10;}
	.st28{fill:url(#SVGID_15_);}
	.st29{opacity:0.6;}
	.st30{opacity:0.57;}
	.st31{fill:url(#SVGID_16_);}
	.st32{display:none;}
	.st33{display:inline;fill:url(#SVGID_17_);}
	.st34{display:inline;fill:url(#SVGID_18_);}
	.st35{display:inline;fill:url(#SVGID_19_);}
	.st36{display:inline;fill:url(#SVGID_20_);}
	.st37{display:inline;fill:url(#SVGID_21_);}
	.st38{display:inline;fill:url(#SVGID_22_);}
	.st39{display:inline;fill:url(#SVGID_23_);}
	.st40{display:inline;fill:url(#SVGID_24_);}
	.st41{display:inline;fill:url(#SVGID_25_);}
	.st42{display:inline;fill:url(#SVGID_26_);}
	.st43{display:inline;fill:url(#SVGID_27_);}
	.st44{display:inline;fill:url(#SVGID_28_);}
	.st45{display:inline;fill:url(#SVGID_29_);}
	.st46{display:inline;fill:url(#SVGID_30_);}
	.st47{display:inline;fill:url(#SVGID_31_);}
	.st48{display:inline;fill:url(#SVGID_32_);}
	.st49{display:inline;fill:url(#SVGID_33_);}
	.st50{display:inline;fill:url(#SVGID_34_);}
	.st51{display:inline;fill:url(#SVGID_35_);}
	.st52{display:inline;fill:url(#SVGID_36_);}
	.st53{display:inline;fill:url(#SVGID_37_);}
	.st54{display:inline;fill:url(#SVGID_38_);}
	.st55{display:inline;fill:url(#SVGID_39_);}
	.st56{display:inline;fill:url(#SVGID_40_);}
	.st57{display:inline;fill:url(#SVGID_41_);}
	.st58{display:inline;fill:url(#SVGID_42_);}
	.st59{display:inline;fill:url(#SVGID_43_);}
	.st60{display:inline;fill:url(#SVGID_44_);}
	.st61{display:inline;opacity:0.7;}
	.st62{fill:#AAAAAA;}
	.st63{fill:#EEEEEE;}
</style>
<g id="レイヤー_2">
</g>
<g id="ガイド">
</g>
<g id="レイヤー_3">
	<g>
		<path class="st26" d="M9.263,3.002l-6.552,18h3.193L7.36,17h7.277l1.457,4.002h3.193l-6.551-18H9.263z M8.452,14l2.547-6.997
			L13.546,14H8.452z"/>
		<polygon class="st26" points="54.938,10.5 46.938,10.5 46.938,3 43.938,3 43.938,10.5 43.938,13.5 43.938,21 46.938,21
			46.938,13.5 54.938,13.5 54.938,21 57.938,21 57.938,13.5 57.938,10.5 57.938,3 54.938,3 		"/>
		<path class="st26" d="M37,3.002h-3v4h-3v3h3v8c0,1.657,1.343,3,3,3h3v-3h-2c-0.552,0-1-0.448-1-1v-7h3v-3h-3V3.002z"/>
		<path class="st26" d="M25,8.383V7.002h-3v14h3v-8c0-1.657,1.343-3,3-3h1v-3h-1C26.797,7.002,25.729,7.54,25,8.383z"/>
		<path class="st26" d="M83,7.002c-1.094,0-2.117,0.298-3,0.809V3.002h-3v10v1v1v6h3v-0.809c0.883,0.512,1.906,0.809,3,0.809
			c3.314,0,6-2.686,6-6v-1v-1C89,9.688,86.314,7.002,83,7.002z M86,15.002c0,1.657-1.343,3-3,3s-3-1.343-3-3v-2c0-1.657,1.343-3,3-3
			s3,1.343,3,3V15.002z"/>
		<path class="st26" d="M70,16.002c0,1.105-0.896,2-2,2h-1c-1.104,0-2-0.895-2-2v-9h-3v9c0,2.761,2.239,5,5,5h1
			c0.712,0,1.387-0.154,2-0.422v0.422h3v-14h-3V16.002z"/>
	</g>
</g>
<g id="レイヤー_7">
</g>
<g id="レイヤー_9">
</g>
<g id="レイヤー_7のコピー" class="st32">

		<linearGradient id="SVGID_2_" gradientUnits="userSpaceOnUse" x1="-1697.4889" y1="1215.0449" x2="-1717.4889" y2="1215.0449" gradientTransform="matrix(-0.342 0.9397 0.9397 0.342 -1717.6958 1200.9448)">
		<stop  offset="0" style="stop-color:#444444"/>
		<stop  offset="1" style="stop-color:#666666"/>
	</linearGradient>
	<path style="display:inline;fill:url(#SVGID_2_);" d="M7.896,18.322l5.472-15.035l0,0c-2.076-0.756-4.371,0.315-5.127,2.391
		L2.769,20.713h0C4.845,21.468,7.14,20.398,7.896,18.322z"/>
</g>
<g id="レイヤー_6" class="st32">
</g>
<g id="レイヤー_4">
</g>
<g id="レイヤー_5">
</g>
</svg>
