<svg xmlns="http://www.w3.org/2000/svg" width="1920" height="1080"><path d="M153,-236L639,-215L846,-242Z" fill="#e1e1e1" stroke="#e1e1e1" stroke-width="1.51"/><path d="M902,1289L480,1297L1178,1333Z" fill="#545454" stroke="#545454" stroke-width="1.51"/><path d="M1229,-220L1309,-223L1509,-248Z" fill="#afafaf" stroke="#afafaf" stroke-width="1.51"/><path d="M846,-242L1229,-220L1509,-248Z" fill="#b8b8b8" stroke="#b8b8b8" stroke-width="1.51"/><path d="M1630,1282L1178,1333L1752,1319Z" fill="#313131" stroke="#313131" stroke-width="1.51"/><path d="M153,-236L846,-242L1794,-262Z" fill="#cacaca" stroke="#cacaca" stroke-width="1.51"/><path d="M846,-242L1509,-248L1794,-262Z" fill="#adadad" stroke="#adadad" stroke-width="1.51"/><path d="M1794,-262L1898,-225L2074,-227Z" fill="#858585" stroke="#858585" stroke-width="1.51"/><path d="M2074,-227L2064,-50L2088,56Z" fill="#757575" stroke="#757575" stroke-width="1.51"/><path d="M2046,495L1955,525L2104,669Z" fill="#4f4f4f" stroke="#4f4f4f" stroke-width="1.51"/><path d="M1955,525L1938,667L2104,669Z" fill="#4c4c4c" stroke="#4c4c4c" stroke-width="1.51"/><path d="M1941,798L2061,831L2104,669Z" fill="#3f3f3f" stroke="#3f3f3f" stroke-width="1.51"/><path d="M1938,667L1941,798L2104,669Z" fill="#464646" stroke="#464646" stroke-width="1.51"/><path d="M1931,347L2033,404L2111,199Z" fill="#636363" stroke="#636363" stroke-width="1.51"/><path d="M1947,197L1931,347L2111,199Z" fill="#696969" stroke="#696969" stroke-width="1.51"/><path d="M2088,56L1947,197L2111,199Z" fill="#6c6c6c" stroke="#6c6c6c" stroke-width="1.51"/><path d="M2033,404L2046,495L2111,199Z" fill="#5d5d5d" stroke="#5d5d5d" stroke-width="1.51"/><path d="M2074,-227L2088,56L2111,199Z" fill="#707070" stroke="#707070" stroke-width="1.51"/><path d="M2046,495L2104,669L2111,199Z" fill="#545454" stroke="#545454" stroke-width="1.51"/><path d="M1909,1087L2045,1155L2111,973Z" fill="#262626" stroke="#262626" stroke-width="1.51"/><path d="M2104,669L2061,831L2111,973Z" fill="#373737" stroke="#373737" stroke-width="1.51"/><path d="M2111,199L2104,669L2111,973Z" fill="#464646" stroke="#464646" stroke-width="1.51"/><path d="M1910,1270L1752,1319L2124,1247Z" fill="#191919" stroke="#191919" stroke-width="1.51"/><path d="M2045,1155L1910,1270L2124,1247Z" fill="#181818" stroke="#181818" stroke-width="1.51"/><path d="M2111,973L2045,1155L2124,1247Z" fill="#1d1d1d" stroke="#1d1d1d" stroke-width="1.51"/><path d="M2111,199L2111,973L2124,1247Z" fill="#383838" stroke="#383838" stroke-width="1.51"/><path d="M1892,1015L1909,1087L2111,973Z" fill="#2d2d2d" stroke="#2d2d2d" stroke-width="1.51"/><path d="M2061,831L1892,1015L2111,973Z" fill="#333333" stroke="#333333" stroke-width="1.51"/><path d="M1898,-225L2064,-50L2074,-227Z" fill="#7c7c7c" stroke="#7c7c7c" stroke-width="1.51"/><path d="M2064,-50L1989,-5L2088,56Z" fill="#737373" stroke="#737373" stroke-width="1.51"/><path d="M1941,798L1892,1015L2061,831Z" fill="#3a3a3a" stroke="#3a3a3a" stroke-width="1.51"/><path d="M1898,-225L1989,-5L2064,-50Z" fill="#7c7c7c" stroke="#7c7c7c" stroke-width="1.51"/><path d="M1989,-5L1895,70L2088,56Z" fill="#757575" stroke="#757575" stroke-width="1.51"/><path d="M1895,70L1947,197L2088,56Z" fill="#727272" stroke="#727272" stroke-width="1.51"/><path d="M1898,-225L1821,-53L1989,-5Z" fill="#818181" stroke="#818181" stroke-width="1.51"/><path d="M1909,1087L1910,1270L2045,1155Z" fill="#1f1f1f" stroke="#1f1f1f" stroke-width="1.51"/><path d="M2033,404L1955,525L2046,495Z" fill="#575757" stroke="#575757" stroke-width="1.51"/><path d="M1931,347L1955,525L2033,404Z" fill="#5d5d5d" stroke="#5d5d5d" stroke-width="1.51"/><path d="M1796,858L1892,1015L1941,798Z" fill="#3e3e3e" stroke="#3e3e3e" stroke-width="1.51"/><path d="M1931,347L1816,380L1955,525Z" fill="#626262" stroke="#626262" stroke-width="1.51"/><path d="M1821,-53L1895,70L1989,-5Z" fill="#7c7c7c" stroke="#7c7c7c" stroke-width="1.51"/><path d="M1909,1087L1782,1105L1910,1270Z" fill="#252525" stroke="#252525" stroke-width="1.51"/><path d="M1938,667L1748,691L1941,798Z" fill="#4b4b4b" stroke="#4b4b4b" stroke-width="1.51"/><path d="M1895,70L1817,100L1947,197Z" fill="#777777" stroke="#777777" stroke-width="1.51"/><path d="M1819,277L1931,347L1947,197Z" fill="#6d6d6d" stroke="#6d6d6d" stroke-width="1.51"/><path d="M1816,380L1800,593L1955,525Z" fill="#5e5e5e" stroke="#5e5e5e" stroke-width="1.51"/><path d="M1800,593L1938,667L1955,525Z" fill="#545454" stroke="#545454" stroke-width="1.51"/><path d="M1748,691L1796,858L1941,798Z" fill="#4a4a4a" stroke="#4a4a4a" stroke-width="1.51"/><path d="M1817,100L1819,277L1947,197Z" fill="#757575" stroke="#757575" stroke-width="1.51"/><path d="M1800,593L1748,691L1938,667Z" fill="#545454" stroke="#545454" stroke-width="1.51"/><path d="M1796,858L1772,994L1892,1015Z" fill="#3e3e3e" stroke="#3e3e3e" stroke-width="1.51"/><path d="M1819,277L1816,380L1931,347Z" fill="#6d6d6d" stroke="#6d6d6d" stroke-width="1.51"/><path d="M1509,-248L1605,-219L1794,-262Z" fill="#9c9c9c" stroke="#9c9c9c" stroke-width="1.51"/><path d="M1821,-53L1817,100L1895,70Z" fill="#7e7e7e" stroke="#7e7e7e" stroke-width="1.51"/><path d="M1794,-262L1821,-53L1898,-225Z" fill="#888888" stroke="#888888" stroke-width="1.51"/><path d="M1892,1015L1782,1105L1909,1087Z" fill="#2e2e2e" stroke="#2e2e2e" stroke-width="1.51"/><path d="M1782,1105L1752,1319L1910,1270Z" fill="#222222" stroke="#222222" stroke-width="1.51"/><path d="M1772,994L1782,1105L1892,1015Z" fill="#353535" stroke="#353535" stroke-width="1.51"/><path d="M1537,1245L1178,1333L1630,1282Z" fill="#363636" stroke="#363636" stroke-width="1.51"/><path d="M1668,1107L1630,1282L1752,1319Z" fill="#2c2c2c" stroke="#2c2c2c" stroke-width="1.51"/><path d="M1668,1107L1752,1319L1782,1105Z" fill="#2c2c2c" stroke="#2c2c2c" stroke-width="1.51"/><path d="M1605,-219L1620,-65L1794,-262Z" fill="#969696" stroke="#969696" stroke-width="1.51"/><path d="M1748,691L1656,708L1796,858Z" fill="#545454" stroke="#545454" stroke-width="1.51"/><path d="M1672,549L1800,593L1816,380Z" fill="#656565" stroke="#656565" stroke-width="1.51"/><path d="M1617,408L1672,549L1816,380Z" fill="#707070" stroke="#707070" stroke-width="1.51"/><path d="M1617,408L1816,380L1819,277Z" fill="#747474" stroke="#747474" stroke-width="1.51"/><path d="M1817,100L1632,92L1819,277Z" fill="#808080" stroke="#808080" stroke-width="1.51"/><path d="M1632,92L1588,216L1819,277Z" fill="#848484" stroke="#848484" stroke-width="1.51"/><path d="M1794,-262L1620,-65L1821,-53Z" fill="#8f8f8f" stroke="#8f8f8f" stroke-width="1.51"/><path d="M1632,92L1817,100L1821,-53Z" fill="#868686" stroke="#868686" stroke-width="1.51"/><path d="M1620,-65L1632,92L1821,-53Z" fill="#8e8e8e" stroke="#8e8e8e" stroke-width="1.51"/><path d="M1588,216L1617,408L1819,277Z" fill="#7d7d7d" stroke="#7d7d7d" stroke-width="1.51"/><path d="M1772,994L1653,1044L1782,1105Z" fill="#3a3a3a" stroke="#3a3a3a" stroke-width="1.51"/><path d="M1656,708L1581,819L1796,858Z" fill="#555555" stroke="#555555" stroke-width="1.51"/><path d="M1581,819L1772,994L1796,858Z" fill="#4b4b4b" stroke="#4b4b4b" stroke-width="1.51"/><path d="M1672,549L1748,691L1800,593Z" fill="#5e5e5e" stroke="#5e5e5e" stroke-width="1.51"/><path d="M1581,819L1653,1044L1772,994Z" fill="#494949" stroke="#494949" stroke-width="1.51"/><path d="M1653,1044L1668,1107L1782,1105Z" fill="#383838" stroke="#383838" stroke-width="1.51"/><path d="M1672,549L1656,708L1748,691Z" fill="#5f5f5f" stroke="#5f5f5f" stroke-width="1.51"/><path d="M1311,1245L1178,1333L1537,1245Z" fill="#3d3d3d" stroke="#3d3d3d" stroke-width="1.51"/><path d="M1588,216L1483,278L1617,408Z" fill="#878787" stroke="#878787" stroke-width="1.51"/><path d="M1620,-65L1504,-23L1632,92Z" fill="#979797" stroke="#979797" stroke-width="1.51"/><path d="M1581,819L1512,964L1653,1044Z" fill="#515151" stroke="#515151" stroke-width="1.51"/><path d="M1537,1245L1630,1282L1668,1107Z" fill="#333333" stroke="#333333" stroke-width="1.51"/><path d="M1541,1093L1537,1245L1668,1107Z" fill="#3a3a3a" stroke="#3a3a3a" stroke-width="1.51"/><path d="M1536,576L1656,708L1672,549Z" fill="#686868" stroke="#686868" stroke-width="1.51"/><path d="M1617,408L1536,576L1672,549Z" fill="#717171" stroke="#717171" stroke-width="1.51"/><path d="M1536,576L1493,690L1656,708Z" fill="#6a6a6a" stroke="#6a6a6a" stroke-width="1.51"/><path d="M1653,1044L1541,1093L1668,1107Z" fill="#3e3e3e" stroke="#3e3e3e" stroke-width="1.51"/><path d="M1512,964L1541,1093L1653,1044Z" fill="#484848" stroke="#484848" stroke-width="1.51"/><path d="M1493,690L1581,819L1656,708Z" fill="#616161" stroke="#616161" stroke-width="1.51"/><path d="M1473,441L1536,576L1617,408Z" fill="#7a7a7a" stroke="#7a7a7a" stroke-width="1.51"/><path d="M1509,-248L1504,-23L1605,-219Z" fill="#a1a1a1" stroke="#a1a1a1" stroke-width="1.51"/><path d="M1605,-219L1504,-23L1620,-65Z" fill="#9d9d9d" stroke="#9d9d9d" stroke-width="1.51"/><path d="M1456,43L1588,216L1632,92Z" fill="#939393" stroke="#939393" stroke-width="1.51"/><path d="M1504,-23L1456,43L1632,92Z" fill="#999999" stroke="#999999" stroke-width="1.51"/><path d="M1483,278L1473,441L1617,408Z" fill="#848484" stroke="#848484" stroke-width="1.51"/><path d="M1454,838L1512,964L1581,819Z" fill="#5a5a5a" stroke="#5a5a5a" stroke-width="1.51"/><path d="M1456,43L1364,196L1483,278Z" fill="#979797" stroke="#979797" stroke-width="1.51"/><path d="M1493,690L1454,838L1581,819Z" fill="#626262" stroke="#626262" stroke-width="1.51"/><path d="M1456,43L1483,278L1588,216Z" fill="#929292" stroke="#929292" stroke-width="1.51"/><path d="M573,1277L480,1297L902,1289Z" fill="#616161" stroke="#616161" stroke-width="1.51"/><path d="M1309,-223L1504,-23L1509,-248Z" fill="#a7a7a7" stroke="#a7a7a7" stroke-width="1.51"/><path d="M1318,1154L1311,1245L1537,1245Z" fill="#3f3f3f" stroke="#3f3f3f" stroke-width="1.51"/><path d="M1512,964L1288,1009L1541,1093Z" fill="#505050" stroke="#505050" stroke-width="1.51"/><path d="M1288,1009L1318,1154L1541,1093Z" fill="#4c4c4c" stroke="#4c4c4c" stroke-width="1.51"/><path d="M1318,1154L1537,1245L1541,1093Z" fill="#3f3f3f" stroke="#3f3f3f" stroke-width="1.51"/><path d="M1309,-223L1311,-10L1504,-23Z" fill="#a8a8a8" stroke="#a8a8a8" stroke-width="1.51"/><path d="M1281,576L1493,690L1536,576Z" fill="#747474" stroke="#747474" stroke-width="1.51"/><path d="M1473,441L1281,576L1536,576Z" fill="#7b7b7b" stroke="#7b7b7b" stroke-width="1.51"/><path d="M1312,386L1473,441L1483,278Z" fill="#8a8a8a" stroke="#8a8a8a" stroke-width="1.51"/><path d="M1454,838L1288,1009L1512,964Z" fill="#5a5a5a" stroke="#5a5a5a" stroke-width="1.51"/><path d="M1345,826L1288,1009L1454,838Z" fill="#626262" stroke="#626262" stroke-width="1.51"/><path d="M1345,826L1454,838L1493,690Z" fill="#666666" stroke="#666666" stroke-width="1.51"/><path d="M1348,64L1364,196L1456,43Z" fill="#9e9e9e" stroke="#9e9e9e" stroke-width="1.51"/><path d="M1311,-10L1456,43L1504,-23Z" fill="#a1a1a1" stroke="#a1a1a1" stroke-width="1.51"/><path d="M1290,724L1345,826L1493,690Z" fill="#6c6c6c" stroke="#6c6c6c" stroke-width="1.51"/><path d="M1281,576L1290,724L1493,690Z" fill="#747474" stroke="#747474" stroke-width="1.51"/><path d="M126,1248L-50,1258L480,1297Z" fill="#747474" stroke="#747474" stroke-width="1.51"/><path d="M1312,386L1281,576L1473,441Z" fill="#858585" stroke="#858585" stroke-width="1.51"/><path d="M1364,196L1312,386L1483,278Z" fill="#939393" stroke="#939393" stroke-width="1.51"/><path d="M1311,-10L1348,64L1456,43Z" fill="#a3a3a3" stroke="#a3a3a3" stroke-width="1.51"/><path d="M720,1264L573,1277L902,1289Z" fill="#5e5e5e" stroke="#5e5e5e" stroke-width="1.51"/><path d="M846,-242L988,-182L1229,-220Z" fill="#c3c3c3" stroke="#c3c3c3" stroke-width="1.51"/><path d="M1309,-223L1229,-220L1311,-10Z" fill="#b0b0b0" stroke="#b0b0b0" stroke-width="1.51"/><path d="M1228,509L1281,576L1312,386Z" fill="#888888" stroke="#888888" stroke-width="1.51"/><path d="M1235,948L1288,1009L1345,826Z" fill="#636363" stroke="#636363" stroke-width="1.51"/><path d="M1348,64L1187,128L1364,196Z" fill="#a2a2a2" stroke="#a2a2a2" stroke-width="1.51"/><path d="M1187,128L1237,295L1364,196Z" fill="#9f9f9f" stroke="#9f9f9f" stroke-width="1.51"/><path d="M1237,295L1312,386L1364,196Z" fill="#979797" stroke="#979797" stroke-width="1.51"/><path d="M1229,-220L1166,-10L1311,-10Z" fill="#b1b1b1" stroke="#b1b1b1" stroke-width="1.51"/><path d="M1165,857L1235,948L1345,826Z" fill="#696969" stroke="#696969" stroke-width="1.51"/><path d="M1290,724L1214,739L1345,826Z" fill="#707070" stroke="#707070" stroke-width="1.51"/><path d="M1311,-10L1187,128L1348,64Z" fill="#a7a7a7" stroke="#a7a7a7" stroke-width="1.51"/><path d="M1214,739L1165,857L1345,826Z" fill="#6f6f6f" stroke="#6f6f6f" stroke-width="1.51"/><path d="M1281,576L1214,739L1290,724Z" fill="#787878" stroke="#787878" stroke-width="1.51"/><path d="M1166,-10L1187,128L1311,-10Z" fill="#ababab" stroke="#ababab" stroke-width="1.51"/><path d="M1156,1090L1311,1245L1318,1154Z" fill="#4a4a4a" stroke="#4a4a4a" stroke-width="1.51"/><path d="M1288,1009L1156,1090L1318,1154Z" fill="#535353" stroke="#535353" stroke-width="1.51"/><path d="M1156,1090L1178,1333L1311,1245Z" fill="#474747" stroke="#474747" stroke-width="1.51"/><path d="M1237,295L1189,336L1312,386Z" fill="#989898" stroke="#989898" stroke-width="1.51"/><path d="M1189,336L1228,509L1312,386Z" fill="#919191" stroke="#919191" stroke-width="1.51"/><path d="M1156,1090L1057,1188L1178,1333Z" fill="#4d4d4d" stroke="#4d4d4d" stroke-width="1.51"/><path d="M1063,639L1214,739L1281,576Z" fill="#7f7f7f" stroke="#7f7f7f" stroke-width="1.51"/><path d="M1235,948L1156,1090L1288,1009Z" fill="#5d5d5d" stroke="#5d5d5d" stroke-width="1.51"/><path d="M1228,509L1063,639L1281,576Z" fill="#858585" stroke="#858585" stroke-width="1.51"/><path d="M1034,1262L902,1289L1178,1333Z" fill="#4b4b4b" stroke="#4b4b4b" stroke-width="1.51"/><path d="M1187,128L990,201L1189,336Z" fill="#a7a7a7" stroke="#a7a7a7" stroke-width="1.51"/><path d="M1189,336L1080,395L1228,509Z" fill="#969696" stroke="#969696" stroke-width="1.51"/><path d="M1080,395L1082,484L1228,509Z" fill="#939393" stroke="#939393" stroke-width="1.51"/><path d="M1082,484L1063,639L1228,509Z" fill="#8c8c8c" stroke="#8c8c8c" stroke-width="1.51"/><path d="M1010,-85L1166,-10L1229,-220Z" fill="#b8b8b8" stroke="#b8b8b8" stroke-width="1.51"/><path d="M988,-182L1010,-85L1229,-220Z" fill="#bebebe" stroke="#bebebe" stroke-width="1.51"/><path d="M1010,970L1156,1090L1235,948Z" fill="#646464" stroke="#646464" stroke-width="1.51"/><path d="M1187,128L1189,336L1237,295Z" fill="#a0a0a0" stroke="#a0a0a0" stroke-width="1.51"/><path d="M307,1258L126,1248L480,1297Z" fill="#717171" stroke="#717171" stroke-width="1.51"/><path d="M1165,857L1010,970L1235,948Z" fill="#6b6b6b" stroke="#6b6b6b" stroke-width="1.51"/><path d="M1063,639L987,823L1165,857Z" fill="#7c7c7c" stroke="#7c7c7c" stroke-width="1.51"/><path d="M1057,1188L1034,1262L1178,1333Z" fill="#4b4b4b" stroke="#4b4b4b" stroke-width="1.51"/><path d="M1063,639L1165,857L1214,739Z" fill="#797979" stroke="#797979" stroke-width="1.51"/><path d="M1042,75L990,201L1187,128Z" fill="#b0b0b0" stroke="#b0b0b0" stroke-width="1.51"/><path d="M1166,-10L1042,75L1187,128Z" fill="#b0b0b0" stroke="#b0b0b0" stroke-width="1.51"/><path d="M990,201L1080,395L1189,336Z" fill="#a3a3a3" stroke="#a3a3a3" stroke-width="1.51"/><path d="M987,823L1010,970L1165,857Z" fill="#747474" stroke="#747474" stroke-width="1.51"/><path d="M1010,-85L1042,75L1166,-10Z" fill="#b7b7b7" stroke="#b7b7b7" stroke-width="1.51"/><path d="M1010,970L1057,1188L1156,1090Z" fill="#5d5d5d" stroke="#5d5d5d" stroke-width="1.51"/><path d="M1010,970L851,1135L1057,1188Z" fill="#616161" stroke="#616161" stroke-width="1.51"/><path d="M990,201L876,257L1080,395Z" fill="#ababab" stroke="#ababab" stroke-width="1.51"/><path d="M876,257L849,381L1080,395Z" fill="#aaaaaa" stroke="#aaaaaa" stroke-width="1.51"/><path d="M849,588L1063,639L1082,484Z" fill="#919191" stroke="#919191" stroke-width="1.51"/><path d="M1080,395L849,381L1082,484Z" fill="#9e9e9e" stroke="#9e9e9e" stroke-width="1.51"/><path d="M849,381L849,588L1082,484Z" fill="#9d9d9d" stroke="#9d9d9d" stroke-width="1.51"/><path d="M940,958L851,1135L1010,970Z" fill="#6c6c6c" stroke="#6c6c6c" stroke-width="1.51"/><path d="M1010,-85L902,34L1042,75Z" fill="#bcbcbc" stroke="#bcbcbc" stroke-width="1.51"/><path d="M829,733L987,823L1063,639Z" fill="#858585" stroke="#858585" stroke-width="1.51"/><path d="M849,588L829,733L1063,639Z" fill="#8f8f8f" stroke="#8f8f8f" stroke-width="1.51"/><path d="M987,823L940,958L1010,970Z" fill="#757575" stroke="#757575" stroke-width="1.51"/><path d="M902,1289L1034,1262L1057,1188Z" fill="#515151" stroke="#515151" stroke-width="1.51"/><path d="M851,1135L902,1289L1057,1188Z" fill="#585858" stroke="#585858" stroke-width="1.51"/><path d="M902,34L990,201L1042,75Z" fill="#b7b7b7" stroke="#b7b7b7" stroke-width="1.51"/><path d="M829,733L870,822L987,823Z" fill="#848484" stroke="#848484" stroke-width="1.51"/><path d="M988,-182L856,-34L1010,-85Z" fill="#c4c4c4" stroke="#c4c4c4" stroke-width="1.51"/><path d="M856,-34L902,34L1010,-85Z" fill="#c2c2c2" stroke="#c2c2c2" stroke-width="1.51"/><path d="M870,822L940,958L987,823Z" fill="#7c7c7c" stroke="#7c7c7c" stroke-width="1.51"/><path d="M846,-242L856,-34L988,-182Z" fill="#c9c9c9" stroke="#c9c9c9" stroke-width="1.51"/><path d="M902,34L876,257L990,201Z" fill="#b7b7b7" stroke="#b7b7b7" stroke-width="1.51"/><path d="M153,-236L391,-169L639,-215Z" fill="#e7e7e7" stroke="#e7e7e7" stroke-width="1.51"/><path d="M639,-215L787,-216L846,-242Z" fill="#d5d5d5" stroke="#d5d5d5" stroke-width="1.51"/><path d="M849,381L786,424L849,588Z" fill="#a5a5a5" stroke="#a5a5a5" stroke-width="1.51"/><path d="M846,-242L787,-216L856,-34Z" fill="#cecece" stroke="#cecece" stroke-width="1.51"/><path d="M692,109L876,257L902,34Z" fill="#c0c0c0" stroke="#c0c0c0" stroke-width="1.51"/><path d="M870,822L687,990L940,958Z" fill="#7d7d7d" stroke="#7d7d7d" stroke-width="1.51"/><path d="M687,990L779,1099L940,958Z" fill="#757575" stroke="#757575" stroke-width="1.51"/><path d="M779,1099L851,1135L940,958Z" fill="#6c6c6c" stroke="#6c6c6c" stroke-width="1.51"/><path d="M786,424L757,555L849,588Z" fill="#a2a2a2" stroke="#a2a2a2" stroke-width="1.51"/><path d="M701,833L687,990L870,822Z" fill="#868686" stroke="#868686" stroke-width="1.51"/><path d="M692,109L726,281L876,257Z" fill="#bebebe" stroke="#bebebe" stroke-width="1.51"/><path d="M851,1135L720,1264L902,1289Z" fill="#5c5c5c" stroke="#5c5c5c" stroke-width="1.51"/><path d="M856,-34L738,-17L902,34Z" fill="#c6c6c6" stroke="#c6c6c6" stroke-width="1.51"/><path d="M738,-17L692,109L902,34Z" fill="#c8c8c8" stroke="#c8c8c8" stroke-width="1.51"/><path d="M733,673L829,733L849,588Z" fill="#959595" stroke="#959595" stroke-width="1.51"/><path d="M787,-216L738,-17L856,-34Z" fill="#cdcdcd" stroke="#cdcdcd" stroke-width="1.51"/><path d="M726,281L849,381L876,257Z" fill="#b4b4b4" stroke="#b4b4b4" stroke-width="1.51"/><path d="M779,1099L720,1264L851,1135Z" fill="#646464" stroke="#646464" stroke-width="1.51"/><path d="M829,733L701,833L870,822Z" fill="#8a8a8a" stroke="#8a8a8a" stroke-width="1.51"/><path d="M-194,-170L26,-198L153,-236Z" fill="#f6f6f6" stroke="#f6f6f6" stroke-width="1.51"/><path d="M726,281L786,424L849,381Z" fill="#b2b2b2" stroke="#b2b2b2" stroke-width="1.51"/><path d="M757,555L733,673L849,588Z" fill="#9c9c9c" stroke="#9c9c9c" stroke-width="1.51"/><path d="M733,673L701,833L829,733Z" fill="#919191" stroke="#919191" stroke-width="1.51"/><path d="M543,1128L720,1264L779,1099Z" fill="#6a6a6a" stroke="#6a6a6a" stroke-width="1.51"/><path d="M633,417L757,555L786,424Z" fill="#acacac" stroke="#acacac" stroke-width="1.51"/><path d="M726,281L633,417L786,424Z" fill="#b5b5b5" stroke="#b5b5b5" stroke-width="1.51"/><path d="M639,-215L738,-17L787,-216Z" fill="#d5d5d5" stroke="#d5d5d5" stroke-width="1.51"/><path d="M633,417L625,561L757,555Z" fill="#ababab" stroke="#ababab" stroke-width="1.51"/><path d="M687,990L543,1128L779,1099Z" fill="#767676" stroke="#767676" stroke-width="1.51"/><path d="M692,109L592,228L726,281Z" fill="#c5c5c5" stroke="#c5c5c5" stroke-width="1.51"/><path d="M639,-215L580,-19L738,-17Z" fill="#d7d7d7" stroke="#d7d7d7" stroke-width="1.51"/><path d="M625,561L733,673L757,555Z" fill="#a1a1a1" stroke="#a1a1a1" stroke-width="1.51"/><path d="M590,990L543,1128L687,990Z" fill="#7d7d7d" stroke="#7d7d7d" stroke-width="1.51"/><path d="M582,653L536,798L701,833Z" fill="#999999" stroke="#999999" stroke-width="1.51"/><path d="M543,1128L573,1277L720,1264Z" fill="#686868" stroke="#686868" stroke-width="1.51"/><path d="M582,653L701,833L733,673Z" fill="#989898" stroke="#989898" stroke-width="1.51"/><path d="M625,561L582,653L733,673Z" fill="#a2a2a2" stroke="#a2a2a2" stroke-width="1.51"/><path d="M599,76L692,109L738,-17Z" fill="#cecece" stroke="#cecece" stroke-width="1.51"/><path d="M580,-19L599,76L738,-17Z" fill="#d2d2d2" stroke="#d2d2d2" stroke-width="1.51"/><path d="M590,990L687,990L701,833Z" fill="#878787" stroke="#878787" stroke-width="1.51"/><path d="M592,228L633,417L726,281Z" fill="#bfbfbf" stroke="#bfbfbf" stroke-width="1.51"/><path d="M599,76L592,228L692,109Z" fill="#cccccc" stroke="#cccccc" stroke-width="1.51"/><path d="M536,798L590,990L701,833Z" fill="#8e8e8e" stroke="#8e8e8e" stroke-width="1.51"/><path d="M391,-169L390,-90L580,-19Z" fill="#e0e0e0" stroke="#e0e0e0" stroke-width="1.51"/><path d="M592,228L385,346L633,417Z" fill="#c2c2c2" stroke="#c2c2c2" stroke-width="1.51"/><path d="M433,531L625,561L633,417Z" fill="#b1b1b1" stroke="#b1b1b1" stroke-width="1.51"/><path d="M391,-169L580,-19L639,-215Z" fill="#dedede" stroke="#dedede" stroke-width="1.51"/><path d="M385,346L433,531L633,417Z" fill="#bbbbbb" stroke="#bbbbbb" stroke-width="1.51"/><path d="M433,531L582,653L625,561Z" fill="#ababab" stroke="#ababab" stroke-width="1.51"/><path d="M393,838L415,1007L536,798Z" fill="#959595" stroke="#959595" stroke-width="1.51"/><path d="M543,1128L431,1177L573,1277Z" fill="#6f6f6f" stroke="#6f6f6f" stroke-width="1.51"/><path d="M431,1177L480,1297L573,1277Z" fill="#6b6b6b" stroke="#6b6b6b" stroke-width="1.51"/><path d="M416,733L536,798L582,653Z" fill="#9f9f9f" stroke="#9f9f9f" stroke-width="1.51"/><path d="M415,1007L543,1128L590,990Z" fill="#808080" stroke="#808080" stroke-width="1.51"/><path d="M536,798L415,1007L590,990Z" fill="#8e8e8e" stroke="#8e8e8e" stroke-width="1.51"/><path d="M395,106L389,212L592,228Z" fill="#d1d1d1" stroke="#d1d1d1" stroke-width="1.51"/><path d="M389,212L385,346L592,228Z" fill="#cbcbcb" stroke="#cbcbcb" stroke-width="1.51"/><path d="M395,106L592,228L599,76Z" fill="#d0d0d0" stroke="#d0d0d0" stroke-width="1.51"/><path d="M580,-19L395,106L599,76Z" fill="#d5d5d5" stroke="#d5d5d5" stroke-width="1.51"/><path d="M390,-90L395,106L580,-19Z" fill="#dbdbdb" stroke="#dbdbdb" stroke-width="1.51"/><path d="M433,531L416,733L582,653Z" fill="#a9a9a9" stroke="#a9a9a9" stroke-width="1.51"/><path d="M153,-236L308,-159L391,-169Z" fill="#ebebeb" stroke="#ebebeb" stroke-width="1.51"/><path d="M415,1007L431,1177L543,1128Z" fill="#7b7b7b" stroke="#7b7b7b" stroke-width="1.51"/><path d="M416,733L393,838L536,798Z" fill="#9d9d9d" stroke="#9d9d9d" stroke-width="1.51"/><path d="M415,1007L338,1039L431,1177Z" fill="#828282" stroke="#828282" stroke-width="1.51"/><path d="M331,706L416,733L433,531Z" fill="#ababab" stroke="#ababab" stroke-width="1.51"/><path d="M431,1177L307,1258L480,1297Z" fill="#6f6f6f" stroke="#6f6f6f" stroke-width="1.51"/><path d="M390,-90L241,-73L395,106Z" fill="#e1e1e1" stroke="#e1e1e1" stroke-width="1.51"/><path d="M241,-73L253,112L395,106Z" fill="#e0e0e0" stroke="#e0e0e0" stroke-width="1.51"/><path d="M393,838L338,1039L415,1007Z" fill="#919191" stroke="#919191" stroke-width="1.51"/><path d="M338,1039L289,1183L431,1177Z" fill="#7c7c7c" stroke="#7c7c7c" stroke-width="1.51"/><path d="M289,1183L307,1258L431,1177Z" fill="#757575" stroke="#757575" stroke-width="1.51"/><path d="M385,346L280,365L433,531Z" fill="#c3c3c3" stroke="#c3c3c3" stroke-width="1.51"/><path d="M280,365L239,536L433,531Z" fill="#bfbfbf" stroke="#bfbfbf" stroke-width="1.51"/><path d="M239,536L331,706L433,531Z" fill="#b3b3b3" stroke="#b3b3b3" stroke-width="1.51"/><path d="M260,267L385,346L389,212Z" fill="#cfcfcf" stroke="#cfcfcf" stroke-width="1.51"/><path d="M264,786L338,1039L393,838Z" fill="#999999" stroke="#999999" stroke-width="1.51"/><path d="M331,706L264,786L393,838Z" fill="#a3a3a3" stroke="#a3a3a3" stroke-width="1.51"/><path d="M331,706L393,838L416,733Z" fill="#a3a3a3" stroke="#a3a3a3" stroke-width="1.51"/><path d="M260,267L280,365L385,346Z" fill="#cdcdcd" stroke="#cdcdcd" stroke-width="1.51"/><path d="M308,-159L390,-90L391,-169Z" fill="#e6e6e6" stroke="#e6e6e6" stroke-width="1.51"/><path d="M253,112L389,212L395,106Z" fill="#d8d8d8" stroke="#d8d8d8" stroke-width="1.51"/><path d="M264,786L141,1010L338,1039Z" fill="#979797" stroke="#979797" stroke-width="1.51"/><path d="M253,112L260,267L389,212Z" fill="#d6d6d6" stroke="#d6d6d6" stroke-width="1.51"/><path d="M308,-159L241,-73L390,-90Z" fill="#e7e7e7" stroke="#e7e7e7" stroke-width="1.51"/><path d="M135,809L141,1010L264,786Z" fill="#a0a0a0" stroke="#a0a0a0" stroke-width="1.51"/><path d="M185,503L239,536L280,365Z" fill="#c3c3c3" stroke="#c3c3c3" stroke-width="1.51"/><path d="M239,536L178,657L331,706Z" fill="#b2b2b2" stroke="#b2b2b2" stroke-width="1.51"/><path d="M141,1010L289,1183L338,1039Z" fill="#868686" stroke="#868686" stroke-width="1.51"/><path d="M178,657L264,786L331,706Z" fill="#ababab" stroke="#ababab" stroke-width="1.51"/><path d="M241,-73L135,43L253,112Z" fill="#e4e4e4" stroke="#e4e4e4" stroke-width="1.51"/><path d="M289,1183L126,1248L307,1258Z" fill="#767676" stroke="#767676" stroke-width="1.51"/><path d="M153,-236L241,-73L308,-159Z" fill="#ececec" stroke="#ececec" stroke-width="1.51"/><path d="M260,267L139,295L280,365Z" fill="#d1d1d1" stroke="#d1d1d1" stroke-width="1.51"/><path d="M141,1010L92,1196L289,1183Z" fill="#838383" stroke="#838383" stroke-width="1.51"/><path d="M92,1196L126,1248L289,1183Z" fill="#7b7b7b" stroke="#7b7b7b" stroke-width="1.51"/><path d="M253,112L139,295L260,267Z" fill="#d8d8d8" stroke="#d8d8d8" stroke-width="1.51"/><path d="M90,389L185,503L280,365Z" fill="#c9c9c9" stroke="#c9c9c9" stroke-width="1.51"/><path d="M139,295L90,389L280,365Z" fill="#d1d1d1" stroke="#d1d1d1" stroke-width="1.51"/><path d="M153,-236L94,-68L241,-73Z" fill="#ededed" stroke="#ededed" stroke-width="1.51"/><path d="M135,43L139,295L253,112Z" fill="#dedede" stroke="#dedede" stroke-width="1.51"/><path d="M178,657L135,809L264,786Z" fill="#aaaaaa" stroke="#aaaaaa" stroke-width="1.51"/><path d="M185,503L178,657L239,536Z" fill="#bbbbbb" stroke="#bbbbbb" stroke-width="1.51"/><path d="M94,-68L135,43L241,-73Z" fill="#eaeaea" stroke="#eaeaea" stroke-width="1.51"/><path d="M135,43L-40,134L139,295Z" fill="#e2e2e2" stroke="#e2e2e2" stroke-width="1.51"/><path d="M-40,134L-51,220L139,295Z" fill="#dfdfdf" stroke="#dfdfdf" stroke-width="1.51"/><path d="M135,809L-34,971L141,1010Z" fill="#9f9f9f" stroke="#9f9f9f" stroke-width="1.51"/><path d="M26,-198L94,-68L153,-236Z" fill="#f2f2f2" stroke="#f2f2f2" stroke-width="1.51"/><path d="M-42,638L135,809L178,657Z" fill="#b2b2b2" stroke="#b2b2b2" stroke-width="1.51"/><path d="M-15,573L178,657L185,503Z" fill="#bcbcbc" stroke="#bcbcbc" stroke-width="1.51"/><path d="M90,389L-15,573L185,503Z" fill="#c6c6c6" stroke="#c6c6c6" stroke-width="1.51"/><path d="M-15,573L-42,638L178,657Z" fill="#bbbbbb" stroke="#bbbbbb" stroke-width="1.51"/><path d="M-42,638L-47,804L135,809Z" fill="#b0b0b0" stroke="#b0b0b0" stroke-width="1.51"/><path d="M-47,804L-34,971L135,809Z" fill="#a6a6a6" stroke="#a6a6a6" stroke-width="1.51"/><path d="M-57,1117L92,1196L141,1010Z" fill="#8a8a8a" stroke="#8a8a8a" stroke-width="1.51"/><path d="M-48,415L-15,573L90,389Z" fill="#cbcbcb" stroke="#cbcbcb" stroke-width="1.51"/><path d="M94,-68L10,-45L135,43Z" fill="#ececec" stroke="#ececec" stroke-width="1.51"/><path d="M-34,971L-57,1117L141,1010Z" fill="#949494" stroke="#949494" stroke-width="1.51"/><path d="M-51,220L90,389L139,295Z" fill="#d8d8d8" stroke="#d8d8d8" stroke-width="1.51"/><path d="M10,-45L-40,134L135,43Z" fill="#e9e9e9" stroke="#e9e9e9" stroke-width="1.51"/><path d="M92,1196L-50,1258L126,1248Z" fill="#7c7c7c" stroke="#7c7c7c" stroke-width="1.51"/><path d="M-51,220L-48,415L90,389Z" fill="#d7d7d7" stroke="#d7d7d7" stroke-width="1.51"/><path d="M26,-198L10,-45L94,-68Z" fill="#f1f1f1" stroke="#f1f1f1" stroke-width="1.51"/><path d="M-57,1117L-50,1258L92,1196Z" fill="#818181" stroke="#818181" stroke-width="1.51"/><path d="M-51,220L-113,392L-48,415Z" fill="#d9d9d9" stroke="#d9d9d9" stroke-width="1.51"/><path d="M-47,804L-131,864L-34,971Z" fill="#a7a7a7" stroke="#a7a7a7" stroke-width="1.51"/><path d="M-172,-37L-40,134L10,-45Z" fill="#ededed" stroke="#ededed" stroke-width="1.51"/><path d="M-194,-170L-172,-37L10,-45Z" fill="#f4f4f4" stroke="#f4f4f4" stroke-width="1.51"/><path d="M-194,-170L10,-45L26,-198Z" fill="#f5f5f5" stroke="#f5f5f5" stroke-width="1.51"/><path d="M-172,-37L-194,85L-40,134Z" fill="#ededed" stroke="#ededed" stroke-width="1.51"/><path d="M-48,415L-170,555L-15,573Z" fill="#c8c8c8" stroke="#c8c8c8" stroke-width="1.51"/><path d="M-197,266L-113,392L-51,220Z" fill="#dedede" stroke="#dedede" stroke-width="1.51"/><path d="M-205,703L-47,804L-42,638Z" fill="#b6b6b6" stroke="#b6b6b6" stroke-width="1.51"/><path d="M-170,955L-57,1117L-34,971Z" fill="#999999" stroke="#999999" stroke-width="1.51"/><path d="M-170,555L-42,638L-15,573Z" fill="#c1c1c1" stroke="#c1c1c1" stroke-width="1.51"/><path d="M-57,1117L-192,1176L-50,1258Z" fill="#848484" stroke="#848484" stroke-width="1.51"/><path d="M-192,1176L-191,1244L-50,1258Z" fill="#818181" stroke="#818181" stroke-width="1.51"/><path d="M-113,392L-170,555L-48,415Z" fill="#cecece" stroke="#cecece" stroke-width="1.51"/><path d="M-131,864L-170,955L-34,971Z" fill="#a4a4a4" stroke="#a4a4a4" stroke-width="1.51"/><path d="M-194,85L-51,220L-40,134Z" fill="#e7e7e7" stroke="#e7e7e7" stroke-width="1.51"/><path d="M-194,85L-197,266L-51,220Z" fill="#e5e5e5" stroke="#e5e5e5" stroke-width="1.51"/><path d="M-205,703L-131,864L-47,804Z" fill="#b0b0b0" stroke="#b0b0b0" stroke-width="1.51"/><path d="M-170,555L-205,703L-42,638Z" fill="#bebebe" stroke="#bebebe" stroke-width="1.51"/><path d="M-170,955L-192,1176L-57,1117Z" fill="#919191" stroke="#919191" stroke-width="1.51"/><path d="M-197,266L-170,555L-113,392Z" fill="#d4d4d4" stroke="#d4d4d4" stroke-width="1.51"/><path d="M-205,703L-170,955L-131,864Z" fill="#acacac" stroke="#acacac" stroke-width="1.51"/><path d="M-197,266L-205,703L-170,555Z" fill="#cbcbcb" stroke="#cbcbcb" stroke-width="1.51"/><path d="M-205,703L-192,1176L-170,955Z" fill="#a3a3a3" stroke="#a3a3a3" stroke-width="1.51"/><path d="M-194,-170L-194,85L-172,-37Z" fill="#f4f4f4" stroke="#f4f4f4" stroke-width="1.51"/><path d="M-192,1176L-205,703L-191,1244Z" fill="#989898" stroke="#989898" stroke-width="1.51"/><path d="M-194,-170L-197,266L-194,85Z" fill="#eeeeee" stroke="#eeeeee" stroke-width="1.51"/></svg>